<mxfile host="app.diagrams.net" modified="2023-05-17T20:17:35.386Z" agent="Mozilla/5.0 (Windows NT 10.0; Win64; x64; rv:109.0) Gecko/20100101 Firefox/113.0" etag="PaLfoAzj_c2XSLhpEsqX" version="21.3.2" type="github">
  <diagram id="prtHgNgQTEPvFCAcTncT" name="Page-1">
    <mxGraphModel dx="1434" dy="754" grid="1" gridSize="10" guides="1" tooltips="1" connect="1" arrows="1" fold="1" page="1" pageScale="1" pageWidth="827" pageHeight="1169" math="0" shadow="0">
      <root>
        <mxCell id="0" />
        <mxCell id="1" parent="0" />
        <mxCell id="dNxyNK7c78bLwvsdeMH5-19" value="Tote Tag Updater" style="swimlane;html=1;childLayout=stackLayout;resizeParent=1;resizeParentMax=0;horizontal=0;startSize=20;horizontalStack=0;" parent="1" vertex="1">
          <mxGeometry x="120" y="120" width="630" height="580" as="geometry" />
        </mxCell>
        <mxCell id="dNxyNK7c78bLwvsdeMH5-21" value="&lt;div&gt;Netsuite&lt;/div&gt;" style="swimlane;html=1;startSize=20;horizontal=0;" parent="dNxyNK7c78bLwvsdeMH5-19" vertex="1">
          <mxGeometry x="20" width="610" height="270" as="geometry" />
        </mxCell>
        <mxCell id="_ijGgFP_o3ZTLAE6V_c0-29" value="RESTlet" style="swimlane;fontStyle=0;childLayout=stackLayout;horizontal=1;startSize=30;horizontalStack=0;resizeParent=1;resizeParentMax=0;resizeLast=0;collapsible=1;marginBottom=0;whiteSpace=wrap;html=1;" vertex="1" parent="dNxyNK7c78bLwvsdeMH5-21">
          <mxGeometry x="60" y="120" width="200" height="120" as="geometry" />
        </mxCell>
        <mxCell id="_ijGgFP_o3ZTLAE6V_c0-30" value="Recieve POST Request from the Python Service." style="text;strokeColor=none;fillColor=none;align=left;verticalAlign=middle;spacingLeft=4;spacingRight=4;overflow=hidden;points=[[0,0.5],[1,0.5]];portConstraint=eastwest;rotatable=0;whiteSpace=wrap;html=1;" vertex="1" parent="_ijGgFP_o3ZTLAE6V_c0-29">
          <mxGeometry y="30" width="200" height="30" as="geometry" />
        </mxCell>
        <mxCell id="_ijGgFP_o3ZTLAE6V_c0-31" value="For each record recieved, lookup" style="text;strokeColor=none;fillColor=none;align=left;verticalAlign=middle;spacingLeft=4;spacingRight=4;overflow=hidden;points=[[0,0.5],[1,0.5]];portConstraint=eastwest;rotatable=0;whiteSpace=wrap;html=1;" vertex="1" parent="_ijGgFP_o3ZTLAE6V_c0-29">
          <mxGeometry y="60" width="200" height="30" as="geometry" />
        </mxCell>
        <mxCell id="_ijGgFP_o3ZTLAE6V_c0-32" value="Item 3" style="text;strokeColor=none;fillColor=none;align=left;verticalAlign=middle;spacingLeft=4;spacingRight=4;overflow=hidden;points=[[0,0.5],[1,0.5]];portConstraint=eastwest;rotatable=0;whiteSpace=wrap;html=1;" vertex="1" parent="_ijGgFP_o3ZTLAE6V_c0-29">
          <mxGeometry y="90" width="200" height="30" as="geometry" />
        </mxCell>
        <mxCell id="_ijGgFP_o3ZTLAE6V_c0-38" value="Saved Search" style="swimlane;childLayout=stackLayout;horizontal=1;startSize=30;horizontalStack=0;resizeParent=1;resizeParentMax=0;resizeLast=0;collapsible=1;marginBottom=0;whiteSpace=wrap;html=1;" vertex="1" parent="dNxyNK7c78bLwvsdeMH5-21">
          <mxGeometry x="310" y="80" width="290" height="110" as="geometry">
            <mxRectangle x="390" y="20" width="120" height="30" as="alternateBounds" />
          </mxGeometry>
        </mxCell>
        <mxCell id="_ijGgFP_o3ZTLAE6V_c0-39" value="Find all Invoices and Credit Memos with empty tag numbers fields IFF items attached would be contained in a Tote.&lt;br&gt;RETURN: [Document Number] [Internal ID] [Type] [Sales Order #] [Sales Order Internal ID]" style="text;strokeColor=none;fillColor=none;align=left;verticalAlign=middle;spacingLeft=4;spacingRight=4;overflow=hidden;points=[[0,0.5],[1,0.5]];portConstraint=eastwest;rotatable=1;whiteSpace=wrap;html=1;movable=1;resizable=1;deletable=1;editable=1;locked=0;connectable=1;" vertex="1" parent="_ijGgFP_o3ZTLAE6V_c0-38">
          <mxGeometry y="30" width="290" height="80" as="geometry" />
        </mxCell>
        <mxCell id="dNxyNK7c78bLwvsdeMH5-22" value="&lt;div&gt;OpenData&lt;/div&gt;" style="swimlane;html=1;startSize=20;horizontal=0;" parent="dNxyNK7c78bLwvsdeMH5-19" vertex="1">
          <mxGeometry x="20" y="270" width="610" height="310" as="geometry" />
        </mxCell>
        <mxCell id="_ijGgFP_o3ZTLAE6V_c0-6" value="Tableau Server" style="rounded=0;whiteSpace=wrap;html=1;" vertex="1" parent="dNxyNK7c78bLwvsdeMH5-22">
          <mxGeometry x="420" y="70" width="120" height="60" as="geometry" />
        </mxCell>
        <mxCell id="_ijGgFP_o3ZTLAE6V_c0-11" style="edgeStyle=orthogonalEdgeStyle;rounded=0;orthogonalLoop=1;jettySize=auto;html=1;exitX=0.5;exitY=1;exitDx=0;exitDy=0;entryX=0.5;entryY=0;entryDx=0;entryDy=0;" edge="1" parent="dNxyNK7c78bLwvsdeMH5-22" source="_ijGgFP_o3ZTLAE6V_c0-7" target="_ijGgFP_o3ZTLAE6V_c0-6">
          <mxGeometry relative="1" as="geometry" />
        </mxCell>
        <mxCell id="_ijGgFP_o3ZTLAE6V_c0-7" value="&lt;div align=&quot;left&quot;&gt;Tactical Connect&lt;/div&gt;" style="triangle;whiteSpace=wrap;html=1;align=left;" vertex="1" parent="dNxyNK7c78bLwvsdeMH5-22">
          <mxGeometry x="445" y="-40" width="70" height="80" as="geometry" />
        </mxCell>
        <mxCell id="_ijGgFP_o3ZTLAE6V_c0-21" value="OpenData" style="rounded=0;whiteSpace=wrap;html=1;" vertex="1" parent="dNxyNK7c78bLwvsdeMH5-22">
          <mxGeometry x="360" y="160" width="120" height="60" as="geometry" />
        </mxCell>
        <mxCell id="_ijGgFP_o3ZTLAE6V_c0-24" value="Python Service" style="swimlane;fontStyle=0;childLayout=stackLayout;horizontal=1;startSize=30;horizontalStack=0;resizeParent=1;resizeParentMax=0;resizeLast=0;collapsible=1;marginBottom=0;whiteSpace=wrap;html=1;" vertex="1" parent="dNxyNK7c78bLwvsdeMH5-22">
          <mxGeometry x="30" y="15" width="270" height="280" as="geometry" />
        </mxCell>
        <mxCell id="_ijGgFP_o3ZTLAE6V_c0-25" value="Load Saved Search CSV." style="text;strokeColor=none;fillColor=none;align=left;verticalAlign=middle;spacingLeft=4;spacingRight=4;overflow=hidden;points=[[0,0.5],[1,0.5]];portConstraint=eastwest;rotatable=0;whiteSpace=wrap;html=1;" vertex="1" parent="_ijGgFP_o3ZTLAE6V_c0-24">
          <mxGeometry y="30" width="270" height="30" as="geometry" />
        </mxCell>
        <mxCell id="_ijGgFP_o3ZTLAE6V_c0-27" value="Parse all the sales orders that need tag numbers. Build a query to OpenData to gather all the data in one query." style="text;strokeColor=none;fillColor=none;align=left;verticalAlign=middle;spacingLeft=4;spacingRight=4;overflow=hidden;points=[[0,0.5],[1,0.5]];portConstraint=eastwest;rotatable=0;whiteSpace=wrap;html=1;" vertex="1" parent="_ijGgFP_o3ZTLAE6V_c0-24">
          <mxGeometry y="60" width="270" height="60" as="geometry" />
        </mxCell>
        <mxCell id="_ijGgFP_o3ZTLAE6V_c0-44" value="Send a SQL request to OpenData. Parse the response from OpenData building a mapping of sales orders to a list of tag numbers. Then, a mapping of Sales Orders to Invoices/Credit memos to update." style="text;strokeColor=none;fillColor=none;align=left;verticalAlign=middle;spacingLeft=4;spacingRight=4;overflow=hidden;points=[[0,0.5],[1,0.5]];portConstraint=eastwest;rotatable=0;whiteSpace=wrap;html=1;" vertex="1" parent="_ijGgFP_o3ZTLAE6V_c0-24">
          <mxGeometry y="120" width="270" height="80" as="geometry" />
        </mxCell>
        <mxCell id="_ijGgFP_o3ZTLAE6V_c0-46" value="Establish an OAuth connection to the NetSuite RESTlet. Build a JSON object which encapsulates all the Invoices/Credit memos with all their tag numbers. " style="text;strokeColor=none;fillColor=none;align=left;verticalAlign=middle;spacingLeft=4;spacingRight=4;overflow=hidden;points=[[0,0.5],[1,0.5]];portConstraint=eastwest;rotatable=0;whiteSpace=wrap;html=1;" vertex="1" parent="_ijGgFP_o3ZTLAE6V_c0-24">
          <mxGeometry y="200" width="270" height="80" as="geometry" />
        </mxCell>
      </root>
    </mxGraphModel>
  </diagram>
</mxfile>
